<?xml version="1.0" encoding="UTF-8" standalone="no"?>
<svg width="353px" height="219px" viewBox="0 0 353 219" version="1.1" xmlns="http://www.w3.org/2000/svg" xmlns:xlink="http://www.w3.org/1999/xlink" xmlns:sketch="http://www.bohemiancoding.com/sketch/ns">
    <!-- Generator: Sketch 3.3.2 (12043) - http://www.bohemiancoding.com/sketch -->
    <title>brief</title>
    <desc>Created with Sketch.</desc>
    <defs></defs>
    <g id="Welcome" stroke="none" stroke-width="1" fill="none" fill-rule="evenodd" sketch:type="MSPage">
        <g id="Design_Pickle_02_Homepage_Modular_Variant_1" sketch:type="MSArtboardGroup" transform="translate(-233.000000, -1919.000000)">
            <g id="Group-Copy" sketch:type="MSLayerGroup" transform="translate(138.000000, 1730.000000)">
                <g id="Group" transform="translate(0.000000, 133.000000)" sketch:type="MSShapeGroup">
                    <g id="brief">
                        <g transform="translate(95.000000, 56.000000)">
                            <path d="M127,14 L294,14 L294,181 L127,181 L127,14 Z" id="Fill-1" stroke="#A1A4A0" fill="#FFFFFF"></path>
                            <path d="M230.107269,113.173387 L124.79798,123.866935 L176.263478,34.7540323" id="Fill-3" fill="#FFFFFF"></path>
                            <path d="M230.107269,113.173387 L124.79798,123.866935 L176.263478,34.7540323" id="Stroke-4" stroke="#1A1918"></path>
                            <path d="M175.11296,112.876344 C175.11296,141.311677 198.172061,164.363403 226.61768,164.363403 C255.062111,164.363403 278.121212,141.311677 278.121212,112.876344 C278.121212,84.4410108 255.062111,61.3892849 226.61768,61.3892849 C198.172061,61.3892849 175.11296,84.4410108 175.11296,112.876344 L175.11296,112.876344 Z" id="Fill-5" fill="#CFD1CB"></path>
                            <path d="M175.11296,112.876344 C175.11296,141.311677 198.172061,164.363403 226.61768,164.363403 C255.062111,164.363403 278.121212,141.311677 278.121212,112.876344 C278.121212,84.4410108 255.062111,61.3892849 226.61768,61.3892849 C198.172061,61.3892849 175.11296,84.4410108 175.11296,112.876344 L175.11296,112.876344 Z" id="Stroke-6" stroke="#FFFFFF"></path>
                            <path d="M124.012347,123.866935 L175.477845,34.7540323 L226.943343,123.866935 L124.012347,123.866935 L124.012347,123.866935 Z" id="Fill-7" fill="#CFD1CB"></path>
                            <path d="M124.012347,123.866935 L175.477845,34.7540323 L226.943343,123.866935 L124.012347,123.866935 L124.012347,123.866935 Z" id="Stroke-8" stroke="#FFFFFF" stroke-width="6"></path>
                            <path d="M0,0 L143,0 L143,203 L0,203 L0,0 Z" id="Stroke-10" stroke="#A1A4A0" fill="#FFFFFF"></path>
                            <path d="M22.1867037,29.7043011 L118.921778,29.7043011 M22.1867037,53.4677419 L118.921778,53.4677419 M22.1867037,77.2311828 L118.921778,77.2311828 M22.1867037,100.994624 L118.921778,100.994624 M22.1867037,124.758065 L118.921778,124.758065 M22.1867037,148.521505 L118.921778,148.521505 M22.1867037,172.284946 L118.921778,172.284946" id="Stroke-11" stroke="#9E9F9E" stroke-width="4"></path>
                            <path d="M117.733226,76.7832419 L352.127603,76.7832419 L352.127603,218.911194 L117.733226,218.911194 L117.733226,76.7832419 Z" id="Fill-12" stroke="#A1A4A0" fill="#FFFFFF"></path>
                            <path d="M297.336535,113.173387 C297.336535,121.540495 304.120791,128.322581 312.490576,128.322581 C320.859172,128.322581 327.644616,121.540495 327.644616,113.173387 C327.644616,104.80628 320.859172,98.0241935 312.490576,98.0241935 C304.120791,98.0241935 297.336535,104.80628 297.336535,113.173387 L297.336535,113.173387 Z" id="Fill-14" fill="#03B010"></path>
                            <path d="M297.336535,113.173387 C297.336535,121.540495 304.120791,128.322581 312.490576,128.322581 C320.859172,128.322581 327.644616,121.540495 327.644616,113.173387 C327.644616,104.80628 320.859172,98.0241935 312.490576,98.0241935 C304.120791,98.0241935 297.336535,104.80628 297.336535,113.173387 L297.336535,113.173387 Z" id="Stroke-15" stroke="#FFFFFF"></path>
                            <path d="M263.07533,129.879086 L249.187098,147.704043 L214.877162,103.670387 L143.898013,194.766349 L313.633963,194.766349 L263.07533,129.879086 L263.07533,129.879086 Z" id="Fill-16" fill="#CFD1CB"></path>
                            <path d="M263.07533,129.879086 L249.187098,147.704043 L214.877162,103.670387 L143.898013,194.766349 L313.633963,194.766349 L263.07533,129.879086 L263.07533,129.879086 Z" id="Stroke-17" stroke="#FFFFFF"></path>
                        </g>
                    </g>
                </g>
            </g>
        </g>
    </g>
</svg>