<?xml version="1.0" encoding="UTF-8" standalone="no"?>
<svg width="349px" height="212px" viewBox="0 0 349 212" version="1.1" xmlns="http://www.w3.org/2000/svg" xmlns:xlink="http://www.w3.org/1999/xlink" xmlns:sketch="http://www.bohemiancoding.com/sketch/ns">
    <!-- Generator: Sketch 3.3.2 (12043) - http://www.bohemiancoding.com/sketch -->
    <title>files</title>
    <desc>Created with Sketch.</desc>
    <defs></defs>
    <g id="Welcome" stroke="none" stroke-width="1" fill="none" fill-rule="evenodd" sketch:type="MSPage">
        <g id="Design_Pickle_02_Homepage_Modular_Variant_1" sketch:type="MSArtboardGroup" transform="translate(-237.000000, -2591.000000)">
            <g id="Group-Copy-6" sketch:type="MSLayerGroup" transform="translate(137.500000, 2527.000000)">
                <g id="Group" sketch:type="MSShapeGroup">
                    <g id="files" transform="translate(99.000000, 64.000000)">
                        <path d="M115.40882,144 C104.63882,144 105.61782,156.575 86.0368196,156.5 C84.9118196,156.495 83.4548196,156.492 81.7718196,156.49 L81.7718196,156.5 C81.7718196,156.5 73.8088196,156.491 64.9538196,156.486 C56.0978196,156.491 48.1348196,156.5 48.1348196,156.5 L48.1348196,156.49 C46.4518196,156.492 44.9958196,156.495 43.8708196,156.5 C24.2888196,156.575 25.2688196,144 14.4988196,144 L0.78681958,144 L0.78681958,173.683 L129.11982,173.683 L129.11982,144 L115.40882,144 L115.40882,144 Z" id="Fill-1" fill="#9D9E9D"></path>
                        <path d="M126.215,0.5 L218.747,0.5 L218.747,93.032 L126.215,93.032 L126.215,0.5 Z" id="Fill-3" opacity="0.711637127" fill="#D0D2CC"></path>
                        <path d="M153.817,40.199 C154.944,41.158 155.508,42.63 155.508,44.615 C155.508,46.602 154.929,48.054 153.771,48.974 C152.613,49.894 150.846,50.354 148.47,50.354 L146.331,50.354 L146.331,54.839 L142.743,54.839 L142.743,38.762 L148.424,38.762 C150.892,38.762 152.69,39.241 153.817,40.199 L153.817,40.199 Z M151.184,46.524 C151.613,46.041 151.828,45.336 151.828,44.408 C151.828,43.481 151.548,42.821 150.988,42.431 C150.428,42.039 149.558,41.844 148.377,41.844 L146.331,41.844 L146.331,47.249 L148.746,47.249 C149.941,47.249 150.754,47.008 151.184,46.524 L151.184,46.524 Z" id="Fill-4" fill="#FFFFFF"></path>
                        <path d="M178.645,40.866 C180.178,42.269 180.945,44.221 180.945,46.72 C180.945,49.22 180.197,51.197 178.702,52.654 C177.207,54.11 174.927,54.839 171.86,54.839 L166.363,54.839 L166.363,38.762 L172.044,38.762 C174.911,38.762 177.111,39.463 178.645,40.866 L178.645,40.866 Z M176.012,50.423 C176.893,49.595 177.334,48.392 177.334,46.812 C177.334,45.232 176.893,44.018 176.012,43.166 C175.13,42.315 173.776,41.89 171.952,41.89 L169.951,41.89 L169.951,51.665 L172.228,51.665 C173.868,51.665 175.13,51.251 176.012,50.423 L176.012,50.423 Z" id="Fill-5" fill="#FFFFFF"></path>
                        <path d="M203.141,38.762 L203.141,41.913 L195.689,41.913 L195.689,45.386 L202.773,45.386 L202.773,48.537 L195.689,48.537 L195.689,54.839 L192.101,54.839 L192.101,38.762 L203.141,38.762" id="Fill-6" fill="#FFFFFF"></path>
                        <path d="M191.215,59.5 L283.747,59.5 L283.747,152.032 L191.215,152.032 L191.215,59.5 Z" id="Fill-7" opacity="0.711637127" fill="#D0D2CC"></path>
                        <path d="M209.203,100.844 L209.203,97.762 L217.575,97.762 L217.575,108.25 C217.575,110.167 217.08,111.601 216.091,112.551 C215.103,113.502 213.833,113.977 212.285,113.977 C210.353,113.977 208.666,113.233 207.225,111.746 L209.088,109.17 C210.054,110.213 211.065,110.733 212.124,110.733 C212.63,110.733 213.062,110.538 213.423,110.148 C213.783,109.757 213.964,109.17 213.964,108.388 L213.964,100.844 L209.203,100.844" id="Fill-8" fill="#FFFFFF"></path>
                        <path d="M241.518,99.199 C242.645,100.158 243.208,101.63 243.208,103.615 C243.208,105.602 242.629,107.054 241.471,107.974 C240.314,108.894 238.546,109.354 236.17,109.354 L234.03,109.354 L234.03,113.839 L230.442,113.839 L230.442,97.762 L236.124,97.762 C238.592,97.762 240.39,98.241 241.518,99.199 L241.518,99.199 Z M238.884,105.524 C239.312,105.041 239.527,104.336 239.527,103.408 C239.527,102.481 239.248,101.821 238.689,101.431 C238.128,101.039 237.258,100.844 236.077,100.844 L234.03,100.844 L234.03,106.249 L236.445,106.249 C237.642,106.249 238.454,106.008 238.884,105.524 L238.884,105.524 Z" id="Fill-9" fill="#FFFFFF"></path>
                        <path d="M263.506,105.65 L267.116,105.65 L267.116,111.355 C265.522,113.134 263.314,114.023 260.493,114.023 C258.131,114.023 256.149,113.241 254.547,111.677 C252.944,110.113 252.144,108.139 252.144,105.754 C252.144,103.37 252.96,101.381 254.593,99.786 C256.227,98.191 258.196,97.394 260.504,97.394 C262.811,97.394 264.816,98.153 266.519,99.671 L264.655,102.362 C263.935,101.733 263.272,101.3 262.666,101.063 C262.06,100.825 261.405,100.706 260.699,100.706 C259.335,100.706 258.185,101.17 257.25,102.098 C256.315,103.025 255.847,104.248 255.847,105.766 C255.847,107.284 256.295,108.499 257.192,109.411 C258.089,110.324 259.159,110.78 260.4,110.78 C261.643,110.78 262.678,110.542 263.506,110.066 L263.506,105.65" id="Fill-10" fill="#FFFFFF"></path>
                        <path d="M256.215,118.734 L348.747,118.734 L348.747,211.266 L256.215,211.266 L256.215,118.734 Z" id="Fill-11" opacity="0.711637127" fill="#D0D2CC"></path>
                        <path d="M281.679,158.434 C282.806,159.393 283.369,160.864 283.369,162.85 C283.369,164.836 282.79,166.288 281.632,167.208 C280.475,168.128 278.707,168.588 276.331,168.588 L274.191,168.588 L274.191,173.073 L270.603,173.073 L270.603,156.996 L276.285,156.996 C278.753,156.996 280.551,157.476 281.679,158.434 L281.679,158.434 Z M279.045,164.759 C279.474,164.275 279.688,163.57 279.688,162.643 C279.688,161.715 279.409,161.056 278.85,160.665 C278.289,160.273 277.419,160.078 276.238,160.078 L274.191,160.078 L274.191,165.483 L276.606,165.483 C277.803,165.483 278.615,165.242 279.045,164.759 L279.045,164.759 Z" id="Fill-12" fill="#FFFFFF"></path>
                        <path d="M305.472,156.996 L309.06,156.996 L309.06,173.073 L305.472,173.073 L297.812,162.999 L297.812,173.073 L294.225,173.073 L294.225,156.996 L297.582,156.996 L305.472,167.347 L305.472,156.996" id="Fill-13" fill="#FFFFFF"></path>
                        <path d="M331.507,164.885 L335.118,164.885 L335.118,170.589 C333.523,172.368 331.315,173.257 328.494,173.257 C326.133,173.257 324.15,172.476 322.549,170.911 C320.946,169.348 320.146,167.373 320.146,164.988 C320.146,162.604 320.962,160.615 322.595,159.021 C324.228,157.426 326.197,156.628 328.506,156.628 C330.814,156.628 332.818,157.388 334.521,158.905 L332.657,161.597 C331.936,160.968 331.273,160.534 330.668,160.297 C330.061,160.06 329.406,159.94 328.701,159.94 C327.336,159.94 326.187,160.404 325.251,161.332 C324.315,162.26 323.849,163.482 323.849,165 C323.849,166.519 324.297,167.733 325.193,168.645 C326.091,169.559 327.16,170.015 328.402,170.015 C329.645,170.015 330.679,169.776 331.507,169.301 L331.507,164.885" id="Fill-14" fill="#FFFFFF"></path>
                        <path d="M73.2079374,136.91655 L65.0288007,144 L56.849,136.91655 L73.2079374,136.91655" id="Fill-15" fill="#03B010"></path>
                        <path d="M102.734375,54.8076737 L95.2850322,46.9598993 L101.98798,38.4653376 L102.734375,54.8076737" id="Fill-16" fill="#03B010"></path>
                        <path d="M88.8941894,61.0683622 L78.5442646,57.9127839 L80.188459,47.2182158 L88.8941894,61.0683622" id="Fill-17" fill="#03B010"></path>
                        <path d="M76.1775809,87.501326 L66.8343599,92.9585107 L60.0982097,84.4905112 L76.1775809,87.501326" id="Fill-18" fill="#03B010"></path>
                        <path d="M80.3717375,70.9614188 L69.7893943,73.2185338 L66.0441372,63.0671607 L80.3717375,70.9614188" id="Fill-19" fill="#03B010"></path>
                        <path d="M74.2578046,110.974891 L65.5301605,117.370382 L57.9533196,109.646122 L74.2578046,110.974891" id="Fill-20" fill="#03B010"></path>
                    </g>
                </g>
            </g>
        </g>
    </g>
</svg>