<?xml version="1.0" encoding="UTF-8" standalone="no"?>
<svg width="424px" height="228px" viewBox="0 0 424 228" version="1.1" xmlns="http://www.w3.org/2000/svg" xmlns:xlink="http://www.w3.org/1999/xlink" xmlns:sketch="http://www.bohemiancoding.com/sketch/ns">
    <!-- Generator: Sketch 3.3.2 (12043) - http://www.bohemiancoding.com/sketch -->
    <title>work</title>
    <desc>Created with Sketch.</desc>
    <defs></defs>
    <g id="Welcome" stroke="none" stroke-width="1" fill="none" fill-rule="evenodd" sketch:type="MSPage">
        <g id="Design_Pickle_02_Homepage_Modular_Variant_1" sketch:type="MSArtboardGroup" transform="translate(-196.000000, -2247.000000)">
            <g id="Group-Copy-5" sketch:type="MSLayerGroup" transform="translate(137.500000, 2195.000000)">
                <g id="Group" sketch:type="MSShapeGroup">
                    <g id="work" transform="translate(59.000000, 53.000000)">
                        <path d="M129.341,50.283 L422.667,50.283 L422.667,0.203 L129.341,0.203 L129.341,50.283 Z" id="Fill-1" fill="#FFFFFF"></path>
                        <path d="M129.341,50.283 L422.667,50.283 L422.667,0.203 L129.341,0.203 L129.341,50.283 Z" id="Stroke-2" stroke="#888B88"></path>
                        <path d="M227.116,226.41 L309.355,83.968 L391.595,226.41 L227.116,226.41" id="Fill-3" fill="#D0D2CC"></path>
                        <path d="M125.29,129.312 C125.29,165.751 154.83,195.29 191.268,195.29 C227.707,195.29 257.247,165.751 257.247,129.312 C257.247,92.873 227.707,63.333 191.268,63.333 C154.83,63.333 125.29,92.873 125.29,129.312 L125.29,129.312 Z" id="Fill-4" fill="#D0D2CC"></path>
                        <rect id="Rectangle-270" stroke="#03B010" stroke-width="2" stroke-dasharray="5" x="0" y="19" width="329" height="169"></rect>
                        <path d="M125.29,129.312 C125.29,165.751 154.83,195.29 191.268,195.29 C227.707,195.29 257.247,165.751 257.247,129.312 C257.247,92.873 227.707,63.333 191.268,63.333 C154.83,63.333 125.29,92.873 125.29,129.312 L125.29,129.312 Z" id="Stroke-5" stroke="#FFFFFF"></path>
                    </g>
                </g>
            </g>
        </g>
    </g>
</svg>